<?xml version="1.0" standalone="no"?>
<!DOCTYPE svg PUBLIC "-//W3C//DTD SVG 20010904//EN"
 "http://www.w3.org/TR/2001/REC-SVG-20010904/DTD/svg10.dtd">
<svg version="1.0" xmlns="http://www.w3.org/2000/svg"
 width="352.000000pt" height="352.000000pt" viewBox="0 0 352.000000 352.000000"
 preserveAspectRatio="xMidYMid meet">
<metadata>
Created by potrace 1.14, written by Peter Selinger 2001-2017
</metadata>
<g transform="translate(0.000000,352.000000) scale(0.100000,-0.100000)"
fill="#000000" stroke="none">
<path d="M1883 3056 c-51 -17 -132 -74 -165 -118 -39 -52 -57 -92 -77 -175
l-18 -77 -84 -21 c-89 -23 -108 -30 -194 -70 -89 -40 -94 -40 -176 4 -96 52
-178 69 -251 53 -128 -29 -225 -106 -280 -220 -26 -54 -31 -76 -31 -140 0 -88
22 -155 105 -309 l50 -93 1 -207 c2 -177 5 -213 19 -240 23 -41 36 -49 54 -31
12 12 13 27 4 84 -11 81 -13 254 -2 254 4 0 24 -26 44 -58 51 -79 81 -106 107
-97 12 4 50 51 88 108 36 56 69 106 73 110 12 14 140 -24 150 -44 22 -39 80
-263 72 -271 -5 -5 -41 -17 -80 -27 -38 -10 -75 -22 -81 -25 -23 -15 -9 -54
53 -146 35 -52 76 -114 91 -138 l27 -43 -24 -33 c-68 -96 -131 -175 -142 -179
-36 -14 -204 176 -281 318 -33 61 -52 85 -66 85 -36 0 -34 -44 6 -122 131
-254 367 -439 660 -516 85 -22 122 -26 240 -26 120 0 156 4 249 27 356 89 626
348 737 707 32 102 33 110 33 285 0 188 -3 209 -55 355 -28 78 -85 186 -132
250 -45 60 -147 165 -217 221 l-44 36 17 74 c22 95 22 142 -3 221 -16 52 -31
76 -82 130 -89 92 -129 110 -253 115 -66 2 -114 -2 -142 -11z m257 -86 c135
-69 196 -212 149 -351 -36 -109 -124 -271 -227 -416 -45 -65 -66 -77 -77 -44
-5 16 -37 62 -74 107 -5 6 -19 29 -30 50 -12 21 -25 46 -30 54 -80 129 -141
278 -141 346 0 48 37 140 72 180 35 39 104 83 151 95 52 13 161 3 207 -21z
m-504 -368 c6 -4 19 -29 29 -57 40 -107 268 -482 320 -525 26 -22 52 1 126
107 71 103 189 300 189 315 0 45 165 -94 243 -205 24 -34 56 -84 72 -111 l28
-50 -52 -48 c-29 -26 -56 -48 -60 -48 -5 0 -29 26 -55 58 -26 31 -65 81 -89
109 -58 72 -73 70 -138 -19 -29 -40 -66 -90 -82 -112 l-30 -39 12 -106 c7 -58
18 -150 25 -205 12 -92 12 -107 -10 -235 -13 -75 -24 -146 -24 -158 0 -20 38
-70 170 -223 60 -70 80 -97 80 -109 0 -16 -97 -85 -185 -130 -114 -60 -400
-123 -418 -94 -4 5 2 83 12 172 l18 162 100 102 c89 90 106 113 147 201 25 54
46 107 46 118 0 10 -9 40 -19 66 -11 26 -33 85 -50 132 -76 216 -70 205 -182
318 -85 86 -239 213 -308 257 -8 4 -53 18 -100 29 l-86 21 -16 65 c-9 36 -24
78 -34 93 -13 20 -15 30 -6 41 18 21 141 74 222 95 85 23 90 23 105 13z m-512
-62 c115 -65 173 -197 142 -319 -26 -101 -223 -453 -280 -500 -10 -9 -28 11
-83 96 -148 229 -223 386 -223 468 0 89 51 184 127 236 70 49 108 60 189 56
58 -3 82 -10 128 -37z m322 -348 c88 -22 176 -86 339 -244 107 -104 111 -109
142 -195 17 -48 48 -132 67 -186 l36 -98 -46 -93 c-38 -78 -60 -107 -139 -186
-54 -53 -99 -107 -104 -124 -6 -17 -15 -87 -22 -155 -6 -68 -17 -138 -25 -156
-15 -36 -1 -36 -164 -1 -73 16 -230 82 -230 97 0 8 117 184 151 228 11 13 19
30 19 38 0 8 -35 67 -77 131 -43 65 -79 122 -81 129 -2 7 25 21 67 33 38 12
75 28 82 36 9 11 0 54 -37 195 -27 100 -53 188 -59 196 -5 7 -41 22 -79 33
-38 11 -70 21 -72 23 -2 2 23 57 56 123 33 65 65 136 71 157 5 20 15 37 22 37
7 0 44 -8 83 -18z m979 -219 c89 -110 101 -113 178 -44 30 28 59 51 65 51 5 0
20 -37 33 -82 20 -71 23 -105 23 -238 0 -138 -3 -165 -27 -245 -42 -141 -144
-325 -216 -390 l-23 -20 -46 51 c-54 57 -174 200 -183 217 -4 7 3 76 15 155
l22 142 -22 178 c-13 97 -23 184 -24 193 0 9 23 46 51 84 59 78 44 83 154 -52z"/>
<path d="M1950 2889 c-38 -12 -94 -60 -115 -99 -37 -70 -26 -156 27 -216 43
-48 77 -64 142 -64 67 0 110 20 155 71 28 33 34 48 38 103 5 57 3 70 -21 111
-48 81 -140 119 -226 94z m138 -112 c25 -24 32 -39 32 -68 0 -78 -41 -119
-120 -119 -32 0 -48 6 -70 28 -59 59 -44 147 30 185 45 22 85 14 128 -26z"/>
<path d="M895 2456 c-40 -17 -79 -64 -101 -122 -15 -40 -16 -52 -5 -92 36
-135 178 -199 287 -130 49 31 94 112 94 168 0 58 -45 136 -94 165 -49 29 -130
33 -181 11z m161 -100 c39 -39 45 -89 17 -137 -37 -62 -114 -72 -173 -23 -35
30 -46 72 -30 119 16 49 53 75 107 75 38 0 50 -5 79 -34z"/>
</g>
</svg>
